<?xml version="1.0" standalone="no"?>
<!DOCTYPE svg PUBLIC "-//W3C//DTD SVG 20010904//EN"
 "http://www.w3.org/TR/2001/REC-SVG-20010904/DTD/svg10.dtd">
<svg version="1.0" xmlns="http://www.w3.org/2000/svg"
 width="196.000000pt" height="196.000000pt" viewBox="0 0 196.000000 196.000000"
 preserveAspectRatio="xMidYMid meet">
<metadata>
Created by potrace 1.11, written by Peter Selinger 2001-2013
</metadata>
<g transform="translate(0.000000,196.000000) scale(0.100000,-0.100000)"
fill="#000000" stroke="none">
<path d="M1056 1925 c-13 -44 -15 -46 -36 -35 -12 6 -28 7 -44 1 -22 -9 -26
-7 -35 21 -6 17 -13 29 -15 27 -3 -2 -6 -58 -7 -123 -3 -150 -5 -153 -113
-152 l-78 1 -44 -62 c-24 -34 -44 -69 -44 -79 0 -9 -9 -31 -19 -48 -30 -48
-56 -243 -41 -304 10 -38 9 -63 -3 -131 l-15 -84 63 -116 c34 -64 72 -133 85
-154 22 -38 23 -39 6 -95 -18 -62 -22 -125 -16 -272 3 -93 1 -106 -38 -217 -7
-22 -11 -50 -7 -62 8 -27 67 -39 96 -20 18 12 21 27 24 119 4 108 21 200 35
200 13 0 57 -60 70 -94 14 -39 22 -28 10 15 -16 56 -12 67 15 37 l23 -27 21
34 c41 71 116 72 174 4 33 -38 35 -39 42 -17 6 20 8 18 16 -17 5 -22 12 -85
16 -140 8 -94 9 -100 35 -114 20 -12 34 -13 55 -5 34 12 40 41 20 98 -37 106
-39 122 -31 227 l9 104 30 0 c17 -1 39 -4 51 -8 20 -7 21 -5 17 70 -3 43 -9
102 -14 132 -12 72 -11 206 2 256 6 22 14 54 18 70 4 17 1 59 -6 95 -7 36 -13
128 -13 205 l0 140 -39 85 c-31 69 -48 93 -91 128 -47 39 -56 43 -92 38 -74
-10 -77 -4 -80 157 -2 102 -5 134 -12 112z m-114 -117 c2 -27 0 -48 -4 -48 -5
0 -7 28 -7 63 1 67 6 60 11 -15z m-1 -125 c-7 -24 -8 -20 -9 22 0 37 2 44 8
28 5 -12 5 -34 1 -50z m45 42 c19 -14 19 -14 -2 -15 -12 0 -24 7 -28 15 -7 19
5 19 30 0z m9 -39 c12 -11 12 -15 1 -19 -18 -7 -40 8 -32 22 9 14 15 14 31 -3z
m-85 -31 c-7 -8 -20 -15 -29 -15 -11 0 -8 5 9 14 33 19 35 19 20 1z m-141 -8
c-2 -2 -17 -11 -32 -21 -28 -17 -28 -17 -17 3 6 12 20 21 32 21 12 0 19 -1 17
-3z m16 -37 c19 -8 19 -9 -2 -9 -12 -1 -25 4 -28 9 -7 12 2 12 30 0z m-65 -49
c-5 -11 -10 -29 -10 -40 0 -11 -5 -23 -10 -26 -7 -4 -8 3 -4 22 8 32 22 63 30
63 2 0 0 -9 -6 -19z m254 -6 c-4 -8 -10 -15 -15 -15 -4 0 -6 7 -3 15 4 8 10
15 15 15 4 0 6 -7 3 -15z m66 -7 c0 -13 -23 -5 -28 10 -2 7 2 10 12 6 9 -3 16
-11 16 -16z m50 -52 c0 -2 -8 -10 -17 -17 -16 -13 -17 -12 -4 4 13 16 21 21
21 13z m-371 -41 c-30 -50 -44 -55 -20 -6 12 23 26 41 31 41 5 0 0 -16 -11
-35z m325 20 c-4 -8 -10 -12 -15 -9 -11 6 -2 24 11 24 5 0 7 -7 4 -15z m-208
-122 c4 -16 13 -37 20 -48 16 -23 19 -59 4 -50 -5 3 -10 15 -10 27 0 11 -9 31
-20 45 -21 27 -26 53 -10 53 5 0 13 -12 16 -27z m-177 -58 c-13 -25 -30 -45
-37 -45 -8 0 -1 15 17 37 17 21 31 44 31 52 0 8 3 11 6 8 4 -4 -4 -27 -17 -52z
m201 -65 c0 -5 -4 -10 -10 -10 -5 0 -10 5 -10 10 0 6 5 10 10 10 6 0 10 -4 10
-10z m73 -11 c-4 -16 -8 -18 -14 -7 -7 11 -11 10 -19 -2 -8 -12 -10 -11 -10 8
0 17 6 22 24 22 20 0 23 -4 19 -21z m177 17 c0 -2 -11 -11 -25 -20 -24 -16
-25 -16 -25 4 0 15 7 20 25 20 14 0 25 -2 25 -4z m-493 -43 c-3 -10 -5 -4 -5
12 0 17 2 24 5 18 2 -7 2 -21 0 -30z m409 11 c-3 -9 -6 -20 -6 -25 0 -5 -11
-9 -25 -9 -14 0 -25 5 -25 11 0 6 9 8 21 4 19 -6 20 -5 8 8 -8 8 -17 13 -21
10 -5 -2 -8 1 -8 6 0 6 14 11 31 11 24 0 30 -3 25 -16z m-166 -30 c0 -8 -5
-12 -10 -9 -6 4 -8 11 -5 16 9 14 15 11 15 -7z m75 -4 c3 -5 1 -10 -4 -10 -6
0 -11 5 -11 10 0 6 2 10 4 10 3 0 8 -4 11 -10z m-328 -82 c-3 -8 -6 -5 -6 6
-1 11 2 17 5 13 3 -3 4 -12 1 -19z m253 -25 c0 -5 -12 -30 -26 -58 -20 -41
-24 -44 -20 -20 7 45 24 85 36 85 5 0 10 -3 10 -7z m-250 -33 c0 -11 -2 -20
-4 -20 -2 0 -6 9 -9 20 -3 11 -1 20 4 20 5 0 9 -9 9 -20z m174 -119 c-10 -33
-19 -59 -21 -57 -3 2 3 32 13 65 9 34 19 60 21 58 2 -3 -4 -32 -13 -66z m1
-223 c-22 -71 -25 -75 -20 -28 5 37 19 70 31 70 1 0 -3 -19 -11 -42z m-49
-109 c-18 -41 -21 -26 -4 22 6 18 13 29 15 23 2 -6 -3 -26 -11 -45z"/>
</g>
</svg>
